# xmcd
#
# Track frame offsets: 
#        150
#        14673
#        34297
#        48033
#        58170
#        72775
#
# Disc length: 1226 seconds
#
# Revision: 0
# Processed by: cddbd v1.5.2PL0 Copyright (c) Steve Scherf et al.
# Submitted via: ExactAudioCopyFreeDBPlugin 1.0
#
DISCID=4e04c806
DTITLE=Shot Band, The - Songs About Drink' and Dyin'
DYEAR=2004
DGENRE=New Zealand: Country/Blues
TTITLE0=49 Tons
TTITLE1=The Most Beautiful Widow in Town
TTITLE2=Songs About Drinkin' and Dyin'
TTITLE3=Take 345
TTITLE4=Liquor, Beer and Wine
TTITLE5=No-One Knows
EXTD=
EXTT0=
EXTT1=
EXTT2=
EXTT3=
EXTT4=
EXTT5=
PLAYORDER=
